# xmcd CD database file
# Copyright (C) 1993-1996 Ti Kan
#
# Track frame offsets:
# 150
# 13775
# 25132
# 37545
# 48982
# 60322
# 75327
# 85575
# 96847
# 106485
# 118027
# 129165
# 141657
#
# Disc length: 2064 seconds
#
# Revision: 0
# Processed by: cddbd v1.4b41PL1 Copyright (c) Steve Scherf et al.
# Submitted via: inCDius 1.1b5
#
DISCID=95080e0d
DTITLE=Faron Young - Golden Hits - American Essentials
DYEAR=1900
DGENRE=
TTITLE0=It's Four In The Morning
TTITLE1=Wine Me Up
TTITLE2=Step Aside
TTITLE3=Keeping Up With The Joneses
TTITLE4=I Just Came To Get My Baby
TTITLE5=Your Time's Comin'
TTITLE6=Occasional Wife
TTITLE7=The Yellow Bandana
TTITLE8=Goin' Steady
TTITLE9=If I Ever Fall In Love (With A Honky tonk Girl
TTITLE10=Leavin' And Sayin' Goodbye
TTITLE11=Unmitigated Gall
TTITLE12=This Little Girl Of Mine
EXTD=
EXTT0=
EXTT1=
EXTT2=
EXTT3=With Margie Singleton
EXTT4=
EXTT5=
EXTT6=
EXTT7=
EXTT8=
EXTT9=
EXTT10=
EXTT11=
EXTT12=
PLAYORDER=
